<?xml version="1.0" encoding="utf-8"?>
<!-- Generator: Adobe Illustrator 25.4.1, SVG Export Plug-In . SVG Version: 6.00 Build 0)  -->
<svg version="1.1" id="Layer_1" xmlns="http://www.w3.org/2000/svg" xmlns:xlink="http://www.w3.org/1999/xlink" x="0px" y="0px"
	 viewBox="0 0 40 40" style="enable-background:new 0 0 40 40;" xml:space="preserve">
<style type="text/css">
	.st0{fill:#0D163B;}
</style>
<g>
	<g>
		<path class="st0" d="M6.1,0C2.7,0,0,2.7,0,6.1c0,3.3,2.6,6,5.9,6.1l9.1,0c7.1,0,12.9,5.8,12.9,12.9v7.5l0,0l0,1.5
			c0.1,3.3,2.8,5.9,6.1,5.9c3.3,0,6.1-2.7,6.1-6.1c0,0,0-0.4,0-1.2l0,0V8.7V8.6C40,3.8,36.2,0,31.4,0C31.4,0,6.1,0,6.1,0z"/>
		<path class="st0" d="M4.1,35L4.1,35c-2-2-2-5.1,0-7.1l7.1-7.1c2-2,5.1-2,7.1,0l0,0c2,2,2,5.1,0,7.1L11.1,35C9.2,37,6,37,4.1,35z"
			/>
	</g>
</g>
</svg>
