<?xml version="1.0" encoding="utf-8"?>
<!-- Generator: Adobe Illustrator 25.4.1, SVG Export Plug-In . SVG Version: 6.00 Build 0)  -->
<svg version="1.1" id="Layer_1" xmlns="http://www.w3.org/2000/svg" xmlns:xlink="http://www.w3.org/1999/xlink" x="0px" y="0px"
	 viewBox="0 0 24 40" style="enable-background:new 0 0 24 40;" xml:space="preserve">
<style type="text/css">
	.st0{fill:#0D153B;}
</style>
<path class="st0" d="M8.084,1.379c-1.838-1.838-4.819-1.838-6.657,0c-1.808,1.808-1.834,4.719-0.085,6.563l4.969,4.988
	c3.905,3.905,3.905,10.235,0,14.14l-4.136,4.136l0.007,0.008l-0.841,0.845c-1.749,1.844-1.724,4.755,0.085,6.563
	c1.838,1.838,4.819,1.838,6.657,0c0.003-0.003,0.242-0.242,0.649-0.649l0.004,0.004l13.223-13.223l0.04-0.04
	c2.603-2.603,2.603-6.824,0-9.427C22,15.286,8.11,1.405,8.084,1.379z"/>
</svg>
