<?xml version="1.0" encoding="utf-8"?>
<!-- Generator: Adobe Illustrator 25.4.1, SVG Export Plug-In . SVG Version: 6.00 Build 0)  -->
<svg version="1.1" id="Layer_1" xmlns="http://www.w3.org/2000/svg" xmlns:xlink="http://www.w3.org/1999/xlink" x="0px" y="0px"
	 viewBox="0 0 40 24" style="enable-background:new 0 0 40 24;" xml:space="preserve">
<style type="text/css">
	.st0{fill:#0D153B;}
</style>
<path class="st0" d="M38.621,15.916c1.838,1.838,1.838,4.819,0,6.657c-1.808,1.808-4.719,1.834-6.563,0.085l-4.988-4.969
	c-3.905-3.905-10.235-3.905-14.14,0l-4.136,4.136l-0.008-0.007l-0.845,0.841c-1.844,1.749-4.755,1.724-6.563-0.085
	c-1.838-1.838-1.838-4.819,0-6.657c0.003-0.003,0.242-0.242,0.649-0.649l-0.004-0.004L15.246,2.041l0.04-0.04
	c2.603-2.603,6.824-2.603,9.427,0C24.715,2,38.596,15.89,38.621,15.916z"/>
</svg>
