<?xml version="1.0" encoding="utf-8"?>
<!-- Generator: Adobe Illustrator 25.4.1, SVG Export Plug-In . SVG Version: 6.00 Build 0)  -->
<svg version="1.1" id="Layer_1" xmlns="http://www.w3.org/2000/svg" xmlns:xlink="http://www.w3.org/1999/xlink" x="0px" y="0px"
	 viewBox="0 0 40 24" style="enable-background:new 0 0 40 24;" xml:space="preserve">
<style type="text/css">
	.st0{fill:#0D153B;}
</style>
<path class="st0" d="M38.621,8.083c1.838-1.838,1.838-4.819,0-6.657c-1.808-1.808-4.719-1.834-6.563-0.085L27.07,6.31
	c-3.905,3.905-10.235,3.905-14.14,0L8.794,2.174L8.786,2.181l-0.844-0.84C6.098-0.408,3.187-0.383,1.379,1.426
	c-1.838,1.838-1.838,4.819,0,6.657c0.003,0.003,0.242,0.242,0.649,0.649L2.024,8.736l13.223,13.223l0.04,0.04
	c2.603,2.603,6.824,2.603,9.427,0C24.714,21.999,38.595,8.109,38.621,8.083z"/>
</svg>
