<?xml version="1.0" encoding="utf-8"?>
<!-- Generator: Adobe Illustrator 25.4.1, SVG Export Plug-In . SVG Version: 6.00 Build 0)  -->
<svg version="1.1" id="Layer_1" xmlns="http://www.w3.org/2000/svg" xmlns:xlink="http://www.w3.org/1999/xlink" x="0px" y="0px"
	 viewBox="0 0 1024 1024" style="enable-background:new 0 0 1024 1024;" xml:space="preserve">
<style type="text/css">
	.st0{fill:#FFFFFF;}
</style>
<g id="icomoon-ignore">
</g>
<path class="st0" d="M896.6,351.6c-3.9-140.4-85.8-218.4-226.2-226.2c-39-3.9-54.6-3.9-159.9-3.9s-120.9,0-159.9,3.9
	c-140.4,7.8-218.4,85.8-226.2,226.2c-3.9,39-3.9,54.6-3.9,159.9s0,120.9,3.9,159.9c3.9,140.4,85.8,218.4,226.2,226.2
	c39,3.9,54.6,3.9,159.9,3.9s120.9,0,159.9-3.9c140.4-7.8,218.4-85.8,226.2-226.2c3.9-39,3.9-54.6,3.9-159.9S896.6,394.5,896.6,351.6
	z M826.4,667.5c-3.9,105.3-54.6,156-159.9,159.9c-39,3.9-50.7,3.9-156,3.9c-101.4,0-113.1-3.9-156-3.9
	c-105.3-3.9-156-54.6-159.9-159.9c-3.9-39-3.9-50.7-3.9-156c0-101.4,3.9-113.1,3.9-156c3.9-105.3,50.7-156,159.9-159.9
	c39-3.9,50.7-3.9,156-3.9c101.4,0,113.1,3.9,156,3.9c109.2,3.9,156,54.6,159.9,159.9c3.9,39,3.9,50.7,3.9,156
	C830.3,612.9,826.4,624.6,826.4,667.5z"/>
<circle class="st0" cx="717.2" cy="304.8" r="46.8"/>
<path class="st0" d="M510.5,312.6c-109.2,0-198.9,89.7-198.9,198.9s89.7,198.9,198.9,198.9s198.9-89.7,198.9-198.9
	S619.7,312.6,510.5,312.6z M510.5,640.2c-71.1,0-128.7-57.6-128.7-128.7s57.6-128.7,128.7-128.7c71.1,0,128.7,57.6,128.7,128.7
	S581.6,640.2,510.5,640.2z"/>
</svg>
