<?xml version="1.0" encoding="utf-8"?>
<!-- Generator: Adobe Illustrator 25.4.1, SVG Export Plug-In . SVG Version: 6.00 Build 0)  -->
<svg version="1.1" id="Layer_1" xmlns="http://www.w3.org/2000/svg" xmlns:xlink="http://www.w3.org/1999/xlink" x="0px" y="0px"
	 viewBox="0 0 1024 1024" style="enable-background:new 0 0 1024 1024;" xml:space="preserve">
<style type="text/css">
	.st0{fill:#FFFFFF;}
</style>
<g id="icomoon-ignore">
</g>
<path class="st0" d="M552.2,465.9c-0.3,0.4-0.6,0.9-0.9,1.4h0.9V465.9z"/>
<path class="st0" d="M197.3,104.4c62.4,0,100.7,40.9,101.9,94.8c0,52.7-39.6,94.8-103.2,94.8h-1c-61.2,0-100.9-42.1-100.9-94.8
	C94.1,145.3,134.9,104.4,197.3,104.4L197.3,104.4L197.3,104.4z"/>
<path class="st0" d="M735.5,356.2c120.1,0,209.9,78.4,209.9,247.1v314.8H762.9V624.3c0-73.8-26.4-124.2-92.4-124.2
	c-50.4,0-80.6,34.2-93.8,67c-4.8,11.7-5.8,27.9-5.8,44.3v306.7H388.2c0,0,2.4-497.5,0-549H571v77.5
	C595.3,409.2,638.7,356.2,735.5,356.2L735.5,356.2L735.5,356.2z"/>
<path class="st0" d="M104.9,369.1h182.4v549H104.9L104.9,369.1L104.9,369.1z"/>
</svg>
