<?xml version="1.0" encoding="utf-8"?>
<!-- Generator: Adobe Illustrator 25.4.1, SVG Export Plug-In . SVG Version: 6.00 Build 0)  -->
<svg version="1.1" id="Layer_1" xmlns="http://www.w3.org/2000/svg" xmlns:xlink="http://www.w3.org/1999/xlink" x="0px" y="0px"
	 viewBox="0 0 110 110" style="enable-background:new 0 0 110 110;" xml:space="preserve">
<style type="text/css">
	.st0{fill:#FFFFFF;}
</style>
<path class="st0" d="M0,0v110h110V0H0z M99.098,72.961h-0.005c-4.553,12.641-9.919,21.021-16.883,26.371
	c-8.126,6.237-19.077,9.017-35.52,9.017c-0.628,0-1.253,0-1.877-0.012c-7.852-0.088-15.999-0.657-22.395-4.181
	c-2.587-1.451-4.859-3.263-6.72-5.356c-2.563-4.033-7.52-12.26-8.718-16.72c-1.092-6.29-2.605-19.091-1.708-25.402
	c1.384-12.173,6.791-23.78,15.612-33.513c0.227-0.156,0.457-0.323,0.686-0.465c3.565-2.66,11.6-9.032,10.99-8.975
	c6.617-4.014,14.096-6.918,22.025-8.552c0.429,0.232,6.047-1.888,6.454-1.654c1.037-0.286,2.139-0.592,3.191-0.892
	c2.264-0.646,4.639-0.975,7.03-0.976c12.227,0,24.844,8.852,30.003,21.049C108.377,39.524,104.01,59.317,99.098,72.961z"/>
</svg>
