<?xml version="1.0" encoding="utf-8"?>
<!-- Generator: Adobe Illustrator 25.4.1, SVG Export Plug-In . SVG Version: 6.00 Build 0)  -->
<svg version="1.1" id="Layer_1" xmlns="http://www.w3.org/2000/svg" xmlns:xlink="http://www.w3.org/1999/xlink" x="0px" y="0px"
	 viewBox="0 0 234.6 56" style="enable-background:new 0 0 234.6 56;" xml:space="preserve">
<style type="text/css">
	.st0{fill:#0D153B;}
</style>
<g>
	<path class="st0" d="M65.4,10.6h6.9c3.1,0,6.3,1.5,6.3,6c0,4.3-3.2,6-6.1,6h-3.4v6.4h-3.8V10.6z M72.1,19.1c2.2,0,2.8-1.4,2.8-2.6
		c0-1.2-0.7-2.5-2.8-2.5h-2.8v5.2H72.1z"/>
	<path class="st0" d="M83.2,23.5c0.2,1.4,1.4,2.8,3.3,2.8c1.7,0,2.6-1.1,2.9-1.7l3.1,0.9c-0.8,2.2-2.7,3.9-6,3.9
		c-3.7,0-6.8-2.8-6.8-7c0-4.1,3-7,6.7-7c3.9,0,6.3,2.9,6.3,6.9v1.3H83.2z M86.5,18.3c-1.9,0-3,1.3-3.2,2.6h6.2
		C89.5,20.1,88.7,18.3,86.5,18.3z"/>
	<path class="st0" d="M98,23.5c0.2,1.4,1.4,2.8,3.3,2.8c1.7,0,2.6-1.1,2.9-1.7l3.1,0.9c-0.8,2.2-2.7,3.9-6,3.9c-3.7,0-6.8-2.8-6.8-7
		c0-4.1,3-7,6.7-7c3.9,0,6.3,2.9,6.3,6.9v1.3H98z M101.3,18.3c-1.9,0-3,1.3-3.2,2.6h6.2C104.3,20.1,103.5,18.3,101.3,18.3z"/>
	<path class="st0" d="M109.8,15.7h3l0.6,1.4c0.5-0.9,1.5-1.8,3.2-1.8c1,0,1.8,0.3,2.2,0.6l-1.3,3.3c-0.3-0.2-0.7-0.4-1.5-0.4
		c-1.4,0-2.5,1-2.5,3v7.1h-3.7V15.7z"/>
	<path class="st0" d="M126.6,10.6h7.1c3.8,0,6,2.5,6,5.5c0,2.9-1.5,4.6-3.4,5.4l4.2,7.4h-4.1l-3.8-6.9h-2.2v6.9h-3.8V10.6z
		 M133.3,18.8c1.8,0,2.6-1.1,2.6-2.4c0-1.3-0.8-2.4-2.6-2.4h-2.9v4.8H133.3z"/>
	<path class="st0" d="M144.6,23.5c0.2,1.4,1.4,2.8,3.3,2.8c1.7,0,2.6-1.1,2.9-1.7l3.1,0.9c-0.8,2.2-2.7,3.9-6,3.9
		c-3.7,0-6.8-2.8-6.8-7c0-4.1,3-7,6.7-7c3.9,0,6.3,2.9,6.3,6.9v1.3H144.6z M147.9,18.3c-1.9,0-3,1.3-3.2,2.6h6.2
		C150.9,20.1,150.1,18.3,147.9,18.3z"/>
	<path class="st0" d="M155.8,25.4l3.2-1c0.3,1.2,1.1,2,2.4,2c1.3,0,2-0.5,2-1.3c0-0.7-0.7-1.1-2.2-1.3c-2.8-0.5-5.1-1.4-5.1-4.2
		c0-2.2,1.8-4.3,5.3-4.3c2.6,0,4.5,1.4,5.1,3.8l-3.1,0.9c-0.2-0.8-0.7-1.7-2-1.7c-1.2,0-1.9,0.5-1.9,1.1c0,0.7,0.7,1,2.4,1.3
		c3,0.6,4.9,1.6,4.9,4.3c0,2.3-2,4.3-5.5,4.3C158.5,29.3,156.4,27.7,155.8,25.4z"/>
	<path class="st0" d="M172.1,23.5c0.2,1.4,1.4,2.8,3.3,2.8c1.7,0,2.6-1.1,2.9-1.7l3.1,0.9c-0.8,2.2-2.7,3.9-6,3.9
		c-3.7,0-6.8-2.8-6.8-7c0-4.1,3-7,6.7-7c3.9,0,6.3,2.9,6.3,6.9v1.3H172.1z M175.4,18.3c-1.9,0-3,1.3-3.2,2.6h6.2
		C178.4,20.1,177.6,18.3,175.4,18.3z"/>
	<path class="st0" d="M183.4,25.2c0-1.7,0.8-3.8,5.3-4.4l2.5-0.3v-0.1c0-1.3-0.6-2.1-2-2.1c-1.4,0-2.1,0.6-2.3,1.9l-3.3-0.8
		c0.8-2.7,2.4-4,5.7-4c2.8,0,5.6,1.4,5.6,5v8.6h-3.1l-0.4-1.1c-0.4,0.6-1.4,1.5-3.5,1.5C185.6,29.3,183.4,27.9,183.4,25.2z
		 M191.1,24.4V23l-2.3,0.3c-1.5,0.2-1.9,0.8-1.9,1.7c0,0.8,0.7,1.4,2,1.4C190.2,26.3,191.1,25.6,191.1,24.4z"/>
	<path class="st0" d="M197.5,15.7h3l0.6,1.4c0.5-0.9,1.5-1.8,3.2-1.8c1,0,1.8,0.3,2.2,0.6l-1.3,3.3c-0.3-0.2-0.7-0.4-1.5-0.4
		c-1.4,0-2.5,1-2.5,3v7.1h-3.7V15.7z"/>
	<path class="st0" d="M206.8,22.3c0-4.1,3-7,6.9-7c2.9,0,5.2,1.7,6.1,4.3l-3.4,1.1c-0.4-1.2-1.4-1.9-2.7-1.9c-1.9,0-3.2,1.4-3.2,3.5
		c0,2.1,1.3,3.5,3.2,3.5c1.2,0,2.1-0.6,2.5-1.7l3.4,1.1c-0.9,2.5-3.1,4-5.9,4C209.9,29.3,206.8,26.4,206.8,22.3z"/>
	<path class="st0" d="M222.1,10.6h3.7V17c0.8-0.9,1.9-1.7,3.7-1.7c3.2,0,4.8,1.9,4.8,5.9v7.7h-3.7v-7.2c0-2.2-0.9-2.9-2.3-2.9
		c-1.4,0-2.5,0.9-2.5,3v7.1h-3.7V10.6z"/>
	<path class="st0" d="M65.5,36.8h3.9L77.3,49V36.8h3.8v18.4h-3.9l-8-12.2v12.2h-3.8V36.8z"/>
	<path class="st0" d="M87.3,49.7c0.2,1.4,1.4,2.8,3.3,2.8c1.7,0,2.6-1.1,2.9-1.7l3.1,0.9c-0.8,2.2-2.7,3.9-6,3.9
		c-3.7,0-6.8-2.8-6.8-7c0-4.1,3-7,6.7-7c3.9,0,6.3,2.9,6.3,6.9v1.3H87.3z M90.5,44.6c-1.9,0-3,1.3-3.2,2.6h6.2
		C93.5,46.4,92.8,44.6,90.5,44.6z"/>
	<path class="st0" d="M100.1,51.4v-6.2h-2.2V42h2.2v-3.4h3.7V42h3.2v3.3h-3.2v5.6c0,0.8,0.4,1.3,1.1,1.3c0.6,0,0.9-0.2,1.1-0.4
		l1.5,2.7c-0.4,0.5-1.5,1.2-3.5,1.2C102,55.6,100.1,54.2,100.1,51.4z"/>
	<path class="st0" d="M128.8,42l-4.1,13.2h-3.8l-2.3-8.4l-2.3,8.4h-3.8L108.4,42h3.7l2.4,8.9l2.4-8.9h3.3l2.4,8.9L125,42H128.8z"/>
	<path class="st0" d="M129.3,48.6c0-4.1,3.1-7,6.9-7c3.8,0,6.9,2.9,6.9,7s-3.1,7-6.9,7C132.4,55.6,129.3,52.7,129.3,48.6z
		 M139.4,48.6c0-2.1-1.4-3.5-3.2-3.5c-1.8,0-3.2,1.4-3.2,3.5c0,2.1,1.4,3.5,3.2,3.5C138,52.1,139.4,50.7,139.4,48.6z"/>
	<path class="st0" d="M145.4,42h3l0.6,1.4c0.5-0.9,1.5-1.8,3.2-1.8c1,0,1.8,0.3,2.2,0.6l-1.3,3.3c-0.3-0.2-0.7-0.4-1.5-0.4
		c-1.4,0-2.5,1-2.5,3v7.1h-3.7V42z"/>
	<path class="st0" d="M160.8,49.8l-1.1,1.1v4.2H156V36.8h3.7v9.3l3.9-4.2h4.5l-4.9,5.3l5.5,8h-4.2L160.8,49.8z"/>
</g>
<g>
	<g>
		<path class="st0" d="M55.6,55.6H27.8C12.5,55.6,0,43.1,0,27.8S12.5,0,27.8,0s27.8,12.5,27.8,27.8V55.6z M27.8,2.2
			C13.7,2.2,2.2,13.7,2.2,27.8s11.5,25.6,25.6,25.6h25.6V27.8C53.4,13.7,41.9,2.2,27.8,2.2z"/>
	</g>
	<g>
		<path class="st0" d="M49.3,49.3H27.8c-11.9,0-21.5-9.7-21.5-21.5S15.9,6.3,27.8,6.3s21.5,9.7,21.5,21.5V49.3z M27.8,8.5
			c-10.7,0-19.3,8.7-19.3,19.3s8.7,19.3,19.3,19.3h19.3V27.8C47.1,17.1,38.5,8.5,27.8,8.5z"/>
	</g>
	<g>
		<path class="st0" d="M43,43H27.8c-8.4,0-15.2-6.8-15.2-15.2c0-8.4,6.8-15.2,15.2-15.2c8.4,0,15.2,6.8,15.2,15.2V43z M27.8,14.8
			c-7.2,0-13,5.8-13,13c0,7.2,5.8,13,13,13h13v-13C40.8,20.6,35,14.8,27.8,14.8z"/>
	</g>
</g>
</svg>
