<?xml version="1.0" encoding="utf-8"?>
<!-- Generator: Adobe Illustrator 25.4.1, SVG Export Plug-In . SVG Version: 6.00 Build 0)  -->
<svg version="1.1" id="Layer_1" xmlns="http://www.w3.org/2000/svg" xmlns:xlink="http://www.w3.org/1999/xlink" x="0px" y="0px"
	 viewBox="0 0 1024 1024" style="enable-background:new 0 0 1024 1024;" xml:space="preserve">
<style type="text/css">
	.st0{fill:#0D153B;}
</style>
<g id="icomoon-ignore">
</g>
<path class="st0" d="M451.2,0C330.5,0,217.2,46.9,132,132C46.9,217.1,0,330.5,0,451.2s46.9,234,132,319.2
	C216.8,855.2,330.3,902,451.6,902c89.9,0,176.4-26.1,250.4-75.6l11.4-7.6L918.6,1024L1024,918.6L818.8,713.3l7.6-11.4
	c119.4-178.4,95.8-418.1-56-570C685.2,46.9,571.8,0,451.2,0L451.2,0z M664.8,664.9c-57,57-132.9,88.4-213.7,88.4
	s-156.7-31.4-213.7-88.4c-117.8-117.9-117.8-309.6,0-427.4c57-57,132.8-88.4,213.6-88.4c80.9,0,156.8,31.4,213.7,88.4
	c57,57,88.4,132.9,88.4,213.7C753.2,532,721.9,607.9,664.8,664.9L664.8,664.9z"/>
</svg>
