<?xml version="1.0" encoding="utf-8"?>
<!-- Generator: Adobe Illustrator 25.4.1, SVG Export Plug-In . SVG Version: 6.00 Build 0)  -->
<svg version="1.1" id="Layer_1" xmlns="http://www.w3.org/2000/svg" xmlns:xlink="http://www.w3.org/1999/xlink" x="0px" y="0px"
	 viewBox="0 0 1024 1024" style="enable-background:new 0 0 1024 1024;" xml:space="preserve">
<style type="text/css">
	.st0{fill:#FFFFFF;}
</style>
<g id="icomoon-ignore">
</g>
<path class="st0" d="M918.3,260c-29.9,13.3-62,22.2-95.7,26.3c34.4-20.6,60.8-53.3,73.3-92.2c-32.2,19.1-67.9,33-105.9,40.4
	c-30.4-32.4-73.7-52.6-121.7-52.6c-92.1,0-166.7,74.6-166.7,166.7c0,13.1,1.5,25.8,4.3,38c-138.6-6.9-261.4-73.3-343.6-174.2
	c-14.4,24.6-22.6,53.2-22.6,83.8c0,57.8,29.4,108.9,74.2,138.8c-27.3-0.8-53-8.4-75.5-20.8c0,0.7,0,1.4,0,2.1
	c0,80.8,57.5,148.2,133.7,163.5c-14,3.8-28.7,5.8-43.9,5.8c-10.8,0-21.2-1-31.4-3c21.2,66.2,82.8,114.4,155.8,115.8
	c-57.1,44.7-129,71.4-207.1,71.4c-13.4,0-26.7-0.8-39.8-2.3c73.8,47.3,161.4,74.9,255.6,74.9c306.6,0,474.3-254,474.3-474.4
	c0-7.2-0.2-14.4-0.5-21.6C867.7,322.8,896,293.4,918.3,260L918.3,260z"/>
</svg>
