<?xml version="1.0" encoding="utf-8"?>
<!-- Generator: Adobe Illustrator 25.4.1, SVG Export Plug-In . SVG Version: 6.00 Build 0)  -->
<svg version="1.1" id="Layer_1" xmlns="http://www.w3.org/2000/svg" xmlns:xlink="http://www.w3.org/1999/xlink" x="0px" y="0px"
	 viewBox="0 0 200 56" style="enable-background:new 0 0 200 56;" xml:space="preserve">
<style type="text/css">
	.st0{fill:#0D153B;}
</style>
<g>
	<g>
		<g>
			<polygon class="st0" points="29.6,55.6 27.3,55.6 27.3,28.1 46.8,0 48.6,1.3 29.6,28.8 			"/>
		</g>
		<g>
			<polygon class="st0" points="36.4,55.6 34.2,55.6 34.2,29.5 55,0 56.9,1.3 36.4,30.2 			"/>
		</g>
		<g>
			<polygon class="st0" points="29.6,55.6 27.3,55.6 27.3,28.8 8.3,1.3 10.1,0 29.6,28.1 			"/>
		</g>
		<g>
			<polygon class="st0" points="22.7,55.6 20.4,55.6 20.4,30.2 0,1.3 1.8,0 22.7,29.5 			"/>
		</g>
		<g>
			<polygon class="st0" points="28.5,18.2 16.5,1.3 18.4,0 28.5,14.3 38.5,0 40.3,1.3 			"/>
		</g>
	</g>
	<g>
		<path class="st0" d="M70.5,10.5h-5.1V7h14v3.5h-5.1v14.8h-3.8C70.5,25.3,70.5,10.5,70.5,10.5z"/>
		<path class="st0" d="M81.4,7H85v6.4c0.8-0.9,1.9-1.7,3.7-1.7c3.2,0,4.8,1.9,4.8,5.9v7.6h-3.7v-7.2c0-2.2-0.9-2.9-2.3-2.9
			c-1.4,0-2.5,0.9-2.5,3v7.1h-3.7V7z"/>
		<path class="st0" d="M99.3,19.8c0.2,1.4,1.4,2.8,3.2,2.8c1.7,0,2.6-1,2.9-1.7l3.1,0.9c-0.8,2.2-2.7,3.8-5.9,3.8
			c-3.7,0-6.8-2.8-6.8-7c0-4.1,3-7,6.7-7c3.9,0,6.3,2.9,6.3,6.9v1.3L99.3,19.8L99.3,19.8z M102.6,14.7c-1.9,0-3,1.3-3.2,2.6h6.2
			C105.6,16.5,104.8,14.7,102.6,14.7z"/>
		<path class="st0" d="M120.1,18.3L113.6,7h4.1l4.2,7.5l4.2-7.5h4.2l-6.5,11.3v7h-3.8L120.1,18.3L120.1,18.3z"/>
		<path class="st0" d="M128.3,18.7c0-4.1,3.1-7,6.9-7c3.8,0,6.9,2.9,6.9,7s-3.1,7-6.9,7C131.4,25.6,128.3,22.8,128.3,18.7z
			 M138.4,18.7c0-2.1-1.4-3.5-3.2-3.5c-1.8,0-3.2,1.4-3.2,3.5c0,2.1,1.4,3.5,3.2,3.5C137,22.2,138.4,20.8,138.4,18.7z"/>
		<path class="st0" d="M156.6,25.3h-3l-0.5-1.5c-0.7,0.9-1.8,1.9-3.8,1.9c-3.2,0-4.8-1.9-4.8-5.9v-7.6h3.7v7.2
			c0,2.1,0.9,2.9,2.3,2.9c1.5,0,2.5-0.9,2.5-3v-7.1h3.7V25.3z"/>
		<path class="st0" d="M159.5,12.1h3l0.5,1.5c0.7-0.9,1.8-1.9,3.8-1.9c3.2,0,4.8,1.9,4.8,5.9v7.6H168V18c0-2.1-0.9-2.9-2.3-2.9
			c-1.5,0-2.5,0.9-2.5,3v7.1h-3.7L159.5,12.1L159.5,12.1z"/>
		<path class="st0" d="M174.5,26.5l3.5-0.8c0.3,1.2,1.2,1.9,2.8,1.9c1.9,0,3.2-1,3.2-3.1v-1.2c-0.5,0.8-1.8,1.7-3.7,1.7
			c-3.5,0-6.3-2.6-6.3-6.6c0-4,2.8-6.7,6.3-6.7c2,0,3.3,1.1,3.7,1.8l0.7-1.4h3v12.4c0,4.1-2.9,6.3-6.9,6.3
			C177.2,30.8,175.2,28.9,174.5,26.5z M184,18.4c0-2.1-1.4-3.3-3.1-3.3c-1.8,0-3.1,1.3-3.1,3.3s1.3,3.3,3.1,3.3S184,20.5,184,18.4z"
			/>
		<path class="st0" d="M66.6,33.1h11.7v3.4h-7.9V41h6.9v3.3h-6.9v7.1h-3.8V33.1z"/>
		<path class="st0" d="M79,44.8c0-4.1,3.1-7,6.9-7c3.8,0,6.9,2.9,6.9,7s-3.1,7-6.9,7C82.1,51.8,79,48.9,79,44.8z M89.1,44.8
			c0-2.1-1.4-3.5-3.2-3.5c-1.8,0-3.2,1.4-3.2,3.5c0,2.1,1.4,3.5,3.2,3.5C87.7,48.3,89.1,46.9,89.1,44.8z"/>
		<path class="st0" d="M107.3,51.4h-3l-0.5-1.5c-0.7,0.9-1.8,1.9-3.8,1.9c-3.2,0-4.8-1.9-4.8-5.9v-7.6h3.7v7.2
			c0,2.1,0.9,2.9,2.3,2.9c1.5,0,2.5-0.9,2.5-3v-7.1h3.7L107.3,51.4L107.3,51.4z"/>
		<path class="st0" d="M110.2,38.2h3l0.5,1.5c0.7-0.9,1.8-1.9,3.8-1.9c3.2,0,4.8,1.9,4.8,5.9v7.6h-3.7v-7.2c0-2.1-0.9-2.9-2.3-2.9
			c-1.5,0-2.5,0.9-2.5,3v7.1h-3.7L110.2,38.2L110.2,38.2z"/>
		<path class="st0" d="M124.7,44.8c0-4.1,2.9-7,6.4-7c1.9,0,3.2,0.9,3.8,1.6v-6.4h3.7v18.3h-3.1l-0.5-1.5c-0.5,0.7-1.8,1.8-4,1.8
			C127.7,51.8,124.7,48.9,124.7,44.8z M135,44.8c0-2.1-1.4-3.6-3.2-3.6c-1.8,0-3.3,1.5-3.3,3.6c0,2.1,1.5,3.6,3.3,3.6
			C133.6,48.4,135,47,135,44.8z"/>
		<path class="st0" d="M141,47.7c0-1.7,0.8-3.7,5.3-4.3l2.5-0.3v-0.1c0-1.3-0.6-2.1-2-2.1c-1.4,0-2.1,0.6-2.3,1.9l-3.2-0.8
			c0.8-2.7,2.4-4,5.7-4c2.8,0,5.6,1.4,5.6,5v8.6h-3.1l-0.4-1.1c-0.4,0.6-1.4,1.5-3.5,1.5C143.3,51.8,141,50.4,141,47.7z M148.8,46.9
			v-1.4l-2.3,0.3c-1.5,0.2-1.9,0.8-1.9,1.6c0,0.8,0.7,1.4,2,1.4C147.8,48.8,148.8,48.1,148.8,46.9z"/>
		<path class="st0" d="M156.4,47.7v-6.2h-2.2v-3.2h2.2v-3.4h3.7v3.4h3.1v3.2h-3.1v5.6c0,0.8,0.4,1.3,1.1,1.3c0.5,0,0.9-0.2,1.1-0.4
			l1.5,2.7c-0.4,0.5-1.5,1.2-3.5,1.2C158.2,51.8,156.4,50.4,156.4,47.7z"/>
		<path class="st0" d="M165.4,34.6c0-1.1,0.9-2,2-2c1.1,0,2.1,0.9,2.1,2c0,1.1-0.9,2-2.1,2C166.3,36.6,165.4,35.7,165.4,34.6z
			 M165.6,38.2h3.7v13.2h-3.7V38.2z"/>
		<path class="st0" d="M171.7,44.8c0-4.1,3.1-7,6.9-7c3.8,0,6.9,2.9,6.9,7s-3.1,7-6.9,7C174.8,51.8,171.7,48.9,171.7,44.8z
			 M181.8,44.8c0-2.1-1.4-3.5-3.2-3.5c-1.8,0-3.2,1.4-3.2,3.5c0,2.1,1.4,3.5,3.2,3.5C180.4,48.3,181.8,46.9,181.8,44.8z"/>
		<path class="st0" d="M187.8,38.2h3l0.5,1.5c0.7-0.9,1.8-1.9,3.8-1.9c3.2,0,4.8,1.9,4.8,5.9v7.6h-3.7v-7.2c0-2.1-0.9-2.9-2.3-2.9
			c-1.5,0-2.5,0.9-2.5,3v7.1h-3.7L187.8,38.2L187.8,38.2z"/>
	</g>
</g>
</svg>
