<?xml version="1.0" encoding="utf-8"?>
<!-- Generator: Adobe Illustrator 25.4.1, SVG Export Plug-In . SVG Version: 6.00 Build 0)  -->
<svg version="1.1" id="Layer_1" xmlns="http://www.w3.org/2000/svg" xmlns:xlink="http://www.w3.org/1999/xlink" x="0px" y="0px"
	 viewBox="0 0 200 56" style="enable-background:new 0 0 200 56;" xml:space="preserve">
<style type="text/css">
	.st0{fill:#0D153B;}
</style>
<g>
	<g>
		<g>
			<polygon class="st0" points="29.6,55.6 27.3,55.6 27.3,28.1 46.8,0 48.6,1.3 29.6,28.8 			"/>
		</g>
		<g>
			<polygon class="st0" points="36.4,55.6 34.2,55.6 34.2,29.5 55,0 56.9,1.3 36.4,30.2 			"/>
		</g>
		<g>
			<polygon class="st0" points="29.6,55.6 27.3,55.6 27.3,28.8 8.3,1.3 10.1,0 29.6,28.1 			"/>
		</g>
		<g>
			<polygon class="st0" points="22.7,55.6 20.4,55.6 20.4,30.2 0,1.3 1.8,0 22.7,29.5 			"/>
		</g>
		<g>
			<polygon class="st0" points="28.5,18.2 16.5,1.3 18.4,0 28.5,14.3 38.5,0 40.3,1.3 			"/>
		</g>
	</g>
	<g>
		<path class="st0" d="M70.5,14.1h-5.1v-3.5h14v3.5h-5.1v14.8h-3.8V14.1z"/>
		<path class="st0" d="M81.4,10.6H85V17c0.8-0.9,1.9-1.7,3.7-1.7c3.2,0,4.8,1.9,4.8,5.9v7.6h-3.7v-7.2c0-2.2-0.9-2.9-2.3-2.9
			s-2.5,0.9-2.5,3v7.1h-3.7L81.4,10.6L81.4,10.6z"/>
		<path class="st0" d="M99.3,23.4c0.2,1.4,1.4,2.8,3.2,2.8c1.7,0,2.6-1,2.9-1.7l3.1,0.9c-0.8,2.2-2.7,3.8-5.9,3.8
			c-3.7,0-6.8-2.8-6.8-7c0-4.1,3-7,6.7-7c3.9,0,6.3,2.9,6.3,6.9v1.3L99.3,23.4L99.3,23.4z M102.6,18.3c-1.9,0-3,1.3-3.2,2.6h6.2
			C105.6,20.1,104.8,18.3,102.6,18.3z"/>
		<path class="st0" d="M120.1,21.9l-6.5-11.3h4.1l4.2,7.5l4.2-7.5h4.2l-6.5,11.3v7H120L120.1,21.9L120.1,21.9z"/>
		<path class="st0" d="M128.3,22.3c0-4.1,3.1-7,6.9-7c3.8,0,6.9,2.9,6.9,7s-3.1,7-6.9,7C131.4,29.2,128.3,26.4,128.3,22.3z
			 M138.4,22.3c0-2.1-1.4-3.5-3.2-3.5s-3.2,1.4-3.2,3.5s1.4,3.5,3.2,3.5S138.4,24.4,138.4,22.3z"/>
		<path class="st0" d="M156.6,28.9h-3l-0.5-1.5c-0.7,0.9-1.8,1.9-3.8,1.9c-3.2,0-4.8-1.9-4.8-5.9v-7.6h3.7V23c0,2.1,0.9,2.9,2.3,2.9
			c1.5,0,2.5-0.9,2.5-3v-7.1h3.7L156.6,28.9L156.6,28.9z"/>
		<path class="st0" d="M159.5,15.7h3l0.5,1.5c0.7-0.9,1.8-1.9,3.8-1.9c3.2,0,4.8,1.9,4.8,5.9v7.6H168v-7.2c0-2.1-0.9-2.9-2.3-2.9
			c-1.5,0-2.5,0.9-2.5,3v7.1h-3.7V15.7L159.5,15.7z"/>
		<path class="st0" d="M174.5,30.1l3.5-0.8c0.3,1.2,1.2,1.9,2.8,1.9c1.9,0,3.2-1,3.2-3.1v-1.2c-0.5,0.8-1.8,1.7-3.7,1.7
			c-3.5,0-6.3-2.6-6.3-6.6s2.8-6.7,6.3-6.7c2,0,3.3,1.1,3.7,1.8l0.7-1.4h3v12.4c0,4.1-2.9,6.3-6.9,6.3
			C177.2,34.4,175.2,32.5,174.5,30.1z M184,22c0-2.1-1.4-3.3-3.1-3.3c-1.8,0-3.1,1.3-3.1,3.3s1.3,3.3,3.1,3.3S184,24.1,184,22z"/>
		<path class="st0" d="M66.6,36.7h11.7v3.4h-7.9v4.5h6.9v3.3h-6.9V55h-3.8C66.6,55,66.6,36.7,66.6,36.7z"/>
		<path class="st0" d="M79,48.4c0-4.1,3.1-7,6.9-7s6.9,2.9,6.9,7s-3.1,7-6.9,7S79,52.5,79,48.4z M89.1,48.4c0-2.1-1.4-3.5-3.2-3.5
			c-1.8,0-3.2,1.4-3.2,3.5s1.4,3.5,3.2,3.5S89.1,50.5,89.1,48.4z"/>
		<path class="st0" d="M107.3,55h-3l-0.5-1.5c-0.7,0.9-1.8,1.9-3.8,1.9c-3.2,0-4.8-1.9-4.8-5.9v-7.6h3.7v7.2c0,2.1,0.9,2.9,2.3,2.9
			c1.5,0,2.5-0.9,2.5-3v-7.1h3.7L107.3,55L107.3,55z"/>
		<path class="st0" d="M110.2,41.8h3l0.5,1.5c0.7-0.9,1.8-1.9,3.8-1.9c3.2,0,4.8,1.9,4.8,5.9v7.6h-3.7v-7.2c0-2.1-0.9-2.9-2.3-2.9
			c-1.5,0-2.5,0.9-2.5,3v7.1h-3.7L110.2,41.8L110.2,41.8z"/>
		<path class="st0" d="M124.7,48.4c0-4.1,2.9-7,6.4-7c1.9,0,3.2,0.9,3.8,1.6v-6.4h3.7v18.3h-3.1l-0.5-1.5c-0.5,0.7-1.8,1.8-4,1.8
			C127.7,55.4,124.7,52.5,124.7,48.4z M135,48.4c0-2.1-1.4-3.6-3.2-3.6s-3.3,1.5-3.3,3.6s1.5,3.6,3.3,3.6
			C133.6,52,135,50.6,135,48.4z"/>
		<path class="st0" d="M141,51.3c0-1.7,0.8-3.7,5.3-4.3l2.5-0.3v-0.1c0-1.3-0.6-2.1-2-2.1s-2.1,0.6-2.3,1.9l-3.2-0.8
			c0.8-2.7,2.4-4,5.7-4c2.8,0,5.6,1.4,5.6,5v8.6h-3.1l-0.4-1.1c-0.4,0.6-1.4,1.5-3.5,1.5C143.3,55.4,141,54,141,51.3z M148.8,50.5
			v-1.4l-2.3,0.3c-1.5,0.2-1.9,0.8-1.9,1.6s0.7,1.4,2,1.4C147.8,52.4,148.8,51.7,148.8,50.5z"/>
		<path class="st0" d="M156.4,51.3v-6.2h-2.2v-3.2h2.2v-3.4h3.7v3.4h3.1v3.2h-3.1v5.6c0,0.8,0.4,1.3,1.1,1.3c0.5,0,0.9-0.2,1.1-0.4
			l1.5,2.7c-0.4,0.5-1.5,1.2-3.5,1.2C158.2,55.4,156.4,54,156.4,51.3z"/>
		<path class="st0" d="M165.4,38.2c0-1.1,0.9-2,2-2s2.1,0.9,2.1,2s-0.9,2-2.1,2C166.3,40.2,165.4,39.3,165.4,38.2z M165.6,41.8h3.7
			V55h-3.7V41.8z"/>
		<path class="st0" d="M171.7,48.4c0-4.1,3.1-7,6.9-7c3.8,0,6.9,2.9,6.9,7s-3.1,7-6.9,7S171.7,52.5,171.7,48.4z M181.8,48.4
			c0-2.1-1.4-3.5-3.2-3.5s-3.2,1.4-3.2,3.5s1.4,3.5,3.2,3.5C180.4,51.9,181.8,50.5,181.8,48.4z"/>
		<path class="st0" d="M187.8,41.8h3l0.5,1.5c0.7-0.9,1.8-1.9,3.8-1.9c3.2,0,4.8,1.9,4.8,5.9v7.6h-3.7v-7.2c0-2.1-0.9-2.9-2.3-2.9
			c-1.5,0-2.5,0.9-2.5,3v7.1h-3.7L187.8,41.8L187.8,41.8z"/>
	</g>
</g>
</svg>
